<svg width="2008" height="458" viewBox="0 0 2008 458" fill="none" xmlns="http://www.w3.org/2000/svg">
<g clip-path="url(#clip0_202_9)" filter="url(#filter0_d_202_9)">
<path d="M1013.2 295L1095.8 150.5L1023.8 157L1013.2 295Z" fill="#35A1D3" stroke="#35A1D3" stroke-linejoin="bevel"/>
<path d="M1013.2 295L1173.5 247L1095.8 150.5L1013.2 295Z" fill="#2980A4" stroke="#2980A4" stroke-linejoin="bevel"/>
<path d="M1013.2 295L1171.5 359.5L1173.5 247L1013.2 295Z" fill="#246F8E" stroke="#246F8E" stroke-linejoin="bevel"/>
<path d="M1095.8 150.5L999.2 68.5L1023.8 157L1095.8 150.5Z" fill="#13242A" stroke="#13242A" stroke-linejoin="bevel"/>
<path d="M1023.8 157L870.5 184.5L1013.2 295L1023.8 157Z" fill="#1D5063" stroke="#1D5063" stroke-linejoin="bevel"/>
<path d="M1013.2 295L1108.8 406.5L1171.5 359.5L1013.2 295Z" fill="#1A414F" stroke="#1A414F" stroke-linejoin="bevel"/>
<path d="M1329.1 193L1253.1 170.5L1173.5 247L1329.1 193Z" fill="#2E90BB" stroke="#2E90BB" stroke-linejoin="bevel"/>
<path d="M1173.5 247L1253.1 170.5L1095.8 150.5L1173.5 247Z" fill="#0E171A" stroke="#0E171A" stroke-linejoin="bevel"/>
<path d="M1095.8 150.5L1113.5 0L999.2 68.5L1095.8 150.5Z" fill="#1D5063" stroke="#1D5063" stroke-linejoin="bevel"/>
<path d="M999.2 68.5L870.5 184.5L1023.8 157L999.2 68.5Z" fill="#35A1D3" stroke="#35A1D3" stroke-linejoin="bevel"/>
<path d="M1013.2 295L1068.8 450L1108.8 406.5L1013.2 295Z" fill="#206078" stroke="#206078" stroke-linejoin="bevel"/>
<path d="M844.5 268.5L876.2 321.5L1013.2 295L844.5 268.5Z" fill="#2980A4" stroke="#2980A4" stroke-linejoin="bevel"/>
<path d="M912.2 450H1068.8L1013.2 295L912.2 450Z" fill="#2980A4" stroke="#2980A4" stroke-linejoin="bevel"/>
<path d="M1108.8 406.5L1119.5 450L1171.5 359.5L1108.8 406.5Z" fill="#1D5063" stroke="#1D5063" stroke-linejoin="bevel"/>
<path d="M870.5 184.5L844.5 268.5L1013.2 295L870.5 184.5Z" fill="#13242A" stroke="#13242A" stroke-linejoin="bevel"/>
<path d="M1068.8 450H1119.5L1108.8 406.5L1068.8 450Z" fill="#246F8E" stroke="#246F8E" stroke-linejoin="bevel"/>
<path d="M1253.1 170.5L1231.5 71.5L1095.8 150.5L1253.1 170.5Z" fill="#1D5063" stroke="#1D5063" stroke-linejoin="bevel"/>
<path d="M883.5 0L836.5 186L870.5 184.5L883.5 0Z" fill="#010405" stroke="#010405" stroke-linejoin="bevel"/>
<path d="M870.5 184.5L836.5 186L844.5 268.5L870.5 184.5Z" fill="#2E90BB" stroke="#2E90BB" stroke-linejoin="bevel"/>
<path d="M1118.8 0H1113.5L1095.8 150.5L1118.8 0Z" fill="#1A414F" stroke="#1A414F" stroke-linejoin="bevel"/>
<path d="M1231.5 71.5L1118.8 0L1095.8 150.5L1231.5 71.5Z" fill="#010405" stroke="#010405" stroke-linejoin="bevel"/>
<path d="M1113.5 0H952.2L999.2 68.5L1113.5 0Z" fill="#13242A" stroke="#13242A" stroke-linejoin="bevel"/>
<path d="M999.2 68.5L883.5 0L870.5 184.5L999.2 68.5Z" fill="#2E90BB" stroke="#2E90BB" stroke-linejoin="bevel"/>
<path d="M1322.1 352.5L1329.1 193L1173.5 247L1322.1 352.5Z" fill="#17323C" stroke="#17323C" stroke-linejoin="bevel"/>
<path d="M1253.1 170.5L1329.1 193L1231.5 71.5L1253.1 170.5Z" fill="#0E171A" stroke="#0E171A" stroke-linejoin="bevel"/>
<path d="M1322.1 352.5L1173.5 247L1171.5 359.5L1322.1 352.5Z" fill="#0E171A" stroke="#0E171A" stroke-linejoin="bevel"/>
<path d="M845.5 450H912.2L876.2 321.5L845.5 450Z" fill="#13242A" stroke="#13242A" stroke-linejoin="bevel"/>
<path d="M876.2 321.5L912.2 450L1013.2 295L876.2 321.5Z" fill="#17323C" stroke="#17323C" stroke-linejoin="bevel"/>
<path d="M1302.1 450L1322.1 352.5L1171.5 359.5L1302.1 450Z" fill="#1D5063" stroke="#1D5063" stroke-linejoin="bevel"/>
<path d="M952.2 0H883.5L999.2 68.5L952.2 0Z" fill="#0E171A" stroke="#0E171A" stroke-linejoin="bevel"/>
<path d="M883.5 0L776.9 175L836.5 186L883.5 0Z" fill="#1D5063" stroke="#1D5063" stroke-linejoin="bevel"/>
<path d="M836.5 186L776.9 175L844.5 268.5L836.5 186Z" fill="#17323C" stroke="#17323C" stroke-linejoin="bevel"/>
<path d="M844.5 268.5L765.9 310.5L876.2 321.5L844.5 268.5Z" fill="#13242A" stroke="#13242A" stroke-linejoin="bevel"/>
<path d="M776.9 175L765.9 310.5L844.5 268.5L776.9 175Z" fill="#2E90BB" stroke="#2E90BB" stroke-linejoin="bevel"/>
<path d="M765.9 310.5L845.5 450L876.2 321.5L765.9 310.5Z" fill="#2980A4" stroke="#2980A4" stroke-linejoin="bevel"/>
<path d="M883.5 0L752.9 170.5L776.9 175L883.5 0Z" fill="#010405" stroke="#010405" stroke-linejoin="bevel"/>
<path d="M776.9 175L752.9 170.5L765.9 310.5L776.9 175Z" fill="#010405" stroke="#010405" stroke-linejoin="bevel"/>
<path d="M1119.5 450H1302.1L1171.5 359.5L1119.5 450Z" fill="#2E90BB" stroke="#2E90BB" stroke-linejoin="bevel"/>
<path d="M1329.1 193L1310.1 0L1231.5 71.5L1329.1 193Z" fill="#2980A4" stroke="#2980A4" stroke-linejoin="bevel"/>
<path d="M1231.5 71.5L1310.1 0H1118.8L1231.5 71.5Z" fill="#2E90BB" stroke="#2E90BB" stroke-linejoin="bevel"/>
<path d="M1302.1 450H1390.8L1322.1 352.5L1302.1 450Z" fill="#206078" stroke="#206078" stroke-linejoin="bevel"/>
<path d="M1322.1 352.5L1458.8 287L1329.1 193L1322.1 352.5Z" fill="#010405" stroke="#010405" stroke-linejoin="bevel"/>
<path d="M1329.1 193L1415.8 0H1310.1L1329.1 193Z" fill="#246F8E" stroke="#246F8E" stroke-linejoin="bevel"/>
<path d="M1453.8 380.5L1458.8 287L1322.1 352.5L1453.8 380.5Z" fill="#17323C" stroke="#17323C" stroke-linejoin="bevel"/>
<path d="M1458.8 287V158.5L1329.1 193L1458.8 287Z" fill="#17323C" stroke="#17323C" stroke-linejoin="bevel"/>
<path d="M1390.8 450L1453.8 380.5L1322.1 352.5L1390.8 450Z" fill="#13242A" stroke="#13242A" stroke-linejoin="bevel"/>
<path d="M1474.4 101.5L1415.8 0L1329.1 193L1474.4 101.5Z" fill="#010405" stroke="#010405" stroke-linejoin="bevel"/>
<path d="M1561.4 155L1474.4 101.5L1458.8 158.5L1561.4 155Z" fill="#2980A4" stroke="#2980A4" stroke-linejoin="bevel"/>
<path d="M1458.8 158.5L1474.4 101.5L1329.1 193L1458.8 158.5Z" fill="#13242A" stroke="#13242A" stroke-linejoin="bevel"/>
<path d="M1498.4 302.5L1458.8 158.5V287L1498.4 302.5Z" fill="#17323C" stroke="#17323C" stroke-linejoin="bevel"/>
<path d="M752.9 170.5L637.2 277L765.9 310.5L752.9 170.5Z" fill="#010405" stroke="#010405" stroke-linejoin="bevel"/>
<path d="M765.9 310.5L680.9 450H845.5L765.9 310.5Z" fill="#246F8E" stroke="#246F8E" stroke-linejoin="bevel"/>
<path d="M594.2 142.5L637.2 277L752.9 170.5L594.2 142.5Z" fill="#1A414F" stroke="#1A414F" stroke-linejoin="bevel"/>
<path d="M1453.8 380.5L1498.4 302.5L1458.8 287L1453.8 380.5Z" fill="#2E90BB" stroke="#2E90BB" stroke-linejoin="bevel"/>
<path d="M637.2 277L680.9 450L765.9 310.5L637.2 277Z" fill="#0E171A" stroke="#0E171A" stroke-linejoin="bevel"/>
<path d="M883.5 0H681.9L752.9 170.5L883.5 0Z" fill="#1A414F" stroke="#1A414F" stroke-linejoin="bevel"/>
<path d="M594.2 142.5L609.2 284.5L637.2 277L594.2 142.5Z" fill="#1A414F" stroke="#1A414F" stroke-linejoin="bevel"/>
<path d="M637.2 277L609.2 284.5L680.9 450L637.2 277Z" fill="#35A1D3" stroke="#35A1D3" stroke-linejoin="bevel"/>
<path d="M681.9 0L594.2 142.5L752.9 170.5L681.9 0Z" fill="#13242A" stroke="#13242A" stroke-linejoin="bevel"/>
<path d="M1498.4 302.5L1561.4 155L1458.8 158.5L1498.4 302.5Z" fill="#206078" stroke="#206078" stroke-linejoin="bevel"/>
<path d="M1474.4 101.5L1524.4 0H1415.8L1474.4 101.5Z" fill="#206078" stroke="#206078" stroke-linejoin="bevel"/>
<path d="M1583.1 105.5L1524.4 0L1474.4 101.5L1583.1 105.5Z" fill="#1A414F" stroke="#1A414F" stroke-linejoin="bevel"/>
<path d="M1732.7 161L1583.1 105.5L1561.4 155L1732.7 161Z" fill="#010405" stroke="#010405" stroke-linejoin="bevel"/>
<path d="M1561.4 155L1583.1 105.5L1474.4 101.5L1561.4 155Z" fill="#010405" stroke="#010405" stroke-linejoin="bevel"/>
<path d="M529.6 450H562.2L609.2 284.5L529.6 450Z" fill="#2E90BB" stroke="#2E90BB" stroke-linejoin="bevel"/>
<path d="M609.2 284.5L562.2 450H680.9L609.2 284.5Z" fill="#0E171A" stroke="#0E171A" stroke-linejoin="bevel"/>
<path d="M524.2 0L509.6 154.5L594.2 142.5L524.2 0Z" fill="#2980A4" stroke="#2980A4" stroke-linejoin="bevel"/>
<path d="M594.2 142.5L509.6 154.5L609.2 284.5L594.2 142.5Z" fill="#1A414F" stroke="#1A414F" stroke-linejoin="bevel"/>
<path d="M1453.8 380.5L1595.4 450L1498.4 302.5L1453.8 380.5Z" fill="#2980A4" stroke="#2980A4" stroke-linejoin="bevel"/>
<path d="M1498.4 302.5L1715.1 282.5L1561.4 155L1498.4 302.5Z" fill="#1A414F" stroke="#1A414F" stroke-linejoin="bevel"/>
<path d="M1390.8 450H1595.4L1453.8 380.5L1390.8 450Z" fill="#0E171A" stroke="#0E171A" stroke-linejoin="bevel"/>
<path d="M437.6 302.5L529.6 450L609.2 284.5L437.6 302.5Z" fill="#2E90BB" stroke="#2E90BB" stroke-linejoin="bevel"/>
<path d="M681.9 0H524.2L594.2 142.5L681.9 0Z" fill="#206078" stroke="#206078" stroke-linejoin="bevel"/>
<path d="M1595.4 450L1715.1 282.5L1498.4 302.5L1595.4 450Z" fill="#0E171A" stroke="#0E171A" stroke-linejoin="bevel"/>
<path d="M412.6 0L436.6 176L509.6 154.5L412.6 0Z" fill="#1A414F" stroke="#1A414F" stroke-linejoin="bevel"/>
<path d="M509.6 154.5L437.6 302.5L609.2 284.5L509.6 154.5Z" fill="#0E171A" stroke="#0E171A" stroke-linejoin="bevel"/>
<path d="M420.9 245L437.6 302.5L509.6 154.5L420.9 245Z" fill="#35A1D3" stroke="#35A1D3" stroke-linejoin="bevel"/>
<path d="M436.6 176L420.9 245L509.6 154.5L436.6 176Z" fill="#1D5063" stroke="#1D5063" stroke-linejoin="bevel"/>
<path d="M1628.1 450L1715.1 282.5L1595.4 450H1628.1Z" fill="#35A1D3" stroke="#35A1D3" stroke-linejoin="bevel"/>
<path d="M1583.1 105.5L1704.1 0H1524.4L1583.1 105.5Z" fill="#17323C" stroke="#17323C" stroke-linejoin="bevel"/>
<path d="M1715.1 282.5L1720.1 260L1561.4 155L1715.1 282.5Z" fill="#13242A" stroke="#13242A" stroke-linejoin="bevel"/>
<path d="M1720.1 260L1732.7 161L1561.4 155L1720.1 260Z" fill="#35A1D3" stroke="#35A1D3" stroke-linejoin="bevel"/>
<path d="M1732.7 161L1704.1 0L1583.1 105.5L1732.7 161Z" fill="#2980A4" stroke="#2980A4" stroke-linejoin="bevel"/>
<path d="M277.3 312.5L385.9 325.5L420.9 245L277.3 312.5Z" fill="#2E90BB" stroke="#2E90BB" stroke-linejoin="bevel"/>
<path d="M420.9 245L385.9 325.5L437.6 302.5L420.9 245Z" fill="#0E171A" stroke="#0E171A" stroke-linejoin="bevel"/>
<path d="M437.6 302.5L385.9 325.5L529.6 450L437.6 302.5Z" fill="#246F8E" stroke="#246F8E" stroke-linejoin="bevel"/>
<path d="M524.2 0H412.6L509.6 154.5L524.2 0Z" fill="#246F8E" stroke="#246F8E" stroke-linejoin="bevel"/>
<path d="M436.6 176L293.9 153.5L420.9 245L436.6 176Z" fill="#2E90BB" stroke="#2E90BB" stroke-linejoin="bevel"/>
<path d="M1715.1 282.5L1784.7 287.5L1720.1 260L1715.1 282.5Z" fill="#010405" stroke="#010405" stroke-linejoin="bevel"/>
<path d="M1720.1 260L1784.7 287.5L1732.7 161L1720.1 260Z" fill="#35A1D3" stroke="#35A1D3" stroke-linejoin="bevel"/>
<path d="M1732.7 161L1831.7 57.5L1704.1 0L1732.7 161Z" fill="#246F8E" stroke="#246F8E" stroke-linejoin="bevel"/>
<path d="M1788.7 450L1784.7 287.5L1715.1 282.5L1788.7 450Z" fill="#35A1D3" stroke="#35A1D3" stroke-linejoin="bevel"/>
<path d="M1628.1 450H1788.7L1715.1 282.5L1628.1 450Z" fill="#35A1D3" stroke="#35A1D3" stroke-linejoin="bevel"/>
<path d="M301.3 87.5L293.9 153.5L436.6 176L301.3 87.5Z" fill="#17323C" stroke="#17323C" stroke-linejoin="bevel"/>
<path d="M412.6 0L301.3 87.5L436.6 176L412.6 0Z" fill="#2E90BB" stroke="#2E90BB" stroke-linejoin="bevel"/>
<path d="M412.6 0H318.9L301.3 87.5L412.6 0Z" fill="#17323C" stroke="#17323C" stroke-linejoin="bevel"/>
<path d="M1951.4 153.5L1732.7 161L1784.7 287.5L1951.4 153.5Z" fill="#0E171A" stroke="#0E171A" stroke-linejoin="bevel"/>
<path d="M1951.4 153.5L1831.7 57.5L1732.7 161L1951.4 153.5Z" fill="#1D5063" stroke="#1D5063" stroke-linejoin="bevel"/>
<path d="M1788.7 450H1827.4L1784.7 287.5L1788.7 450Z" fill="#246F8E" stroke="#246F8E" stroke-linejoin="bevel"/>
<path d="M293.9 153.5L277.3 312.5L420.9 245L293.9 153.5Z" fill="#13242A" stroke="#13242A" stroke-linejoin="bevel"/>
<path d="M385.9 325.5L300.9 450H529.6L385.9 325.5Z" fill="#2980A4" stroke="#2980A4" stroke-linejoin="bevel"/>
<path d="M277.3 312.5L300.9 450L385.9 325.5L277.3 312.5Z" fill="#17323C" stroke="#17323C" stroke-linejoin="bevel"/>
<path d="M1955.4 0H1835.7L1831.7 57.5L1955.4 0Z" fill="#1A414F" stroke="#1A414F" stroke-linejoin="bevel"/>
<path d="M1831.7 57.5L1835.7 0H1704.1L1831.7 57.5Z" fill="#17323C" stroke="#17323C" stroke-linejoin="bevel"/>
<path d="M1827.4 450L1906.4 329.5L1784.7 287.5L1827.4 450Z" fill="#246F8E" stroke="#246F8E" stroke-linejoin="bevel"/>
<path d="M1906.4 329.5L1934.4 261L1784.7 287.5L1906.4 329.5Z" fill="#2980A4" stroke="#2980A4" stroke-linejoin="bevel"/>
<path d="M182.6 339.5L221.3 450L277.3 312.5L182.6 339.5Z" fill="#2E90BB" stroke="#2E90BB" stroke-linejoin="bevel"/>
<path d="M277.3 312.5L221.3 450H300.9L277.3 312.5Z" fill="#13242A" stroke="#13242A" stroke-linejoin="bevel"/>
<path d="M182.6 339.5L277.3 312.5L172.3 263L182.6 339.5Z" fill="#1A414F" stroke="#1A414F" stroke-linejoin="bevel"/>
<path d="M190.6 45.5L293.9 153.5L301.3 87.5L190.6 45.5Z" fill="#1D5063" stroke="#1D5063" stroke-linejoin="bevel"/>
<path d="M318.9 0H219.3L301.3 87.5L318.9 0Z" fill="#206078" stroke="#206078" stroke-linejoin="bevel"/>
<path d="M1934.4 261L1951.4 153.5L1784.7 287.5L1934.4 261Z" fill="#206078" stroke="#206078" stroke-linejoin="bevel"/>
<path d="M172.3 263L277.3 312.5L293.9 153.5L172.3 263Z" fill="#0E171A" stroke="#0E171A" stroke-linejoin="bevel"/>
<path d="M147.6 163L172.3 263L293.9 153.5L147.6 163Z" fill="#2980A4" stroke="#2980A4" stroke-linejoin="bevel"/>
<path d="M219.3 0L190.6 45.5L301.3 87.5L219.3 0Z" fill="#246F8E" stroke="#246F8E" stroke-linejoin="bevel"/>
<path d="M1951.4 153.5L1955.4 0L1831.7 57.5L1951.4 153.5Z" fill="#246F8E" stroke="#246F8E" stroke-linejoin="bevel"/>
<path d="M190.6 45.5L147.6 163L293.9 153.5L190.6 45.5Z" fill="#2980A4" stroke="#2980A4" stroke-linejoin="bevel"/>
<path d="M4 398.5L113.6 450L182.6 339.5L4 398.5Z" fill="#246F8E" stroke="#246F8E" stroke-linejoin="bevel"/>
<path d="M2004 301.5V287L1934.4 261L2004 301.5Z" fill="#17323C" stroke="#17323C" stroke-linejoin="bevel"/>
<path d="M1934.4 261L2004 170.5L1951.4 153.5L1934.4 261Z" fill="#010405" stroke="#010405" stroke-linejoin="bevel"/>
<path d="M1951.4 153.5L2004 0H1955.4L1951.4 153.5Z" fill="#1D5063" stroke="#1D5063" stroke-linejoin="bevel"/>
<path d="M2004 301.5L1934.4 261L1906.4 329.5L2004 301.5Z" fill="#1A414F" stroke="#1A414F" stroke-linejoin="bevel"/>
<path d="M2004 287V170.5L1934.4 261L2004 287Z" fill="#206078" stroke="#206078" stroke-linejoin="bevel"/>
<path d="M2004 450V301.5L1906.4 329.5L2004 450Z" fill="#206078" stroke="#206078" stroke-linejoin="bevel"/>
<path d="M219.3 0H151.6L190.6 45.5L219.3 0Z" fill="#1A414F" stroke="#1A414F" stroke-linejoin="bevel"/>
<path d="M190.6 45.5L151.6 0L147.6 163L190.6 45.5Z" fill="#010405" stroke="#010405" stroke-linejoin="bevel"/>
<path d="M1827.4 450H2004L1906.4 329.5L1827.4 450Z" fill="#1D5063" stroke="#1D5063" stroke-linejoin="bevel"/>
<path d="M2004 170.5V0L1951.4 153.5L2004 170.5Z" fill="#35A1D3" stroke="#35A1D3" stroke-linejoin="bevel"/>
<path d="M4 233L172.3 263L147.6 163L4 233Z" fill="#1A414F" stroke="#1A414F" stroke-linejoin="bevel"/>
<path d="M4 233L182.6 339.5L172.3 263L4 233Z" fill="#206078" stroke="#206078" stroke-linejoin="bevel"/>
<path d="M182.6 339.5L113.6 450H221.3L182.6 339.5Z" fill="#010405" stroke="#010405" stroke-linejoin="bevel"/>
<path d="M4 74.5V233L147.6 163L4 74.5Z" fill="#1D5063" stroke="#1D5063" stroke-linejoin="bevel"/>
<path d="M151.6 0L4 74.5L147.6 163L151.6 0Z" fill="#010405" stroke="#010405" stroke-linejoin="bevel"/>
<path d="M4 233V398.5L182.6 339.5L4 233Z" fill="#17323C" stroke="#17323C" stroke-linejoin="bevel"/>
<path d="M4 398.5V450H113.6L4 398.5Z" fill="#246F8E" stroke="#246F8E" stroke-linejoin="bevel"/>
<path d="M151.6 0H4V74.5L151.6 0Z" fill="#246F8E" stroke="#246F8E" stroke-linejoin="bevel"/>
<g filter="url(#filter1_d_202_9)">
<rect x="4" width="2000" height="450" fill="black" fill-opacity="0.33" shape-rendering="crispEdges"/>
</g>
<g filter="url(#filter2_f_202_9)">
<path d="M382.971 283C381.255 283 379.721 282.35 378.369 281.05C377.069 279.698 376.419 278.164 376.419 276.448V183.784C376.419 182.068 377.069 180.56 378.369 179.26C379.721 177.908 381.255 177.232 382.971 177.232C384.687 177.232 386.195 177.908 387.495 179.26C388.847 180.56 389.523 182.068 389.523 183.784V222.94H453.171V183.784C453.171 182.068 453.821 180.56 455.121 179.26C456.421 177.908 457.955 177.232 459.723 177.232C461.439 177.232 462.947 177.908 464.247 179.26C465.599 180.56 466.275 182.068 466.275 183.784V276.448C466.275 278.164 465.599 279.698 464.247 281.05C462.947 282.35 461.439 283 459.723 283C457.955 283 456.421 282.35 455.121 281.05C453.821 279.698 453.171 278.164 453.171 276.448V236.044H389.523V276.448C389.523 278.164 388.847 279.698 387.495 281.05C386.195 282.35 384.687 283 382.971 283ZM563.023 203.908C567.391 203.908 569.575 206.092 569.575 210.46V276.448C569.575 280.816 567.391 283 563.023 283C558.655 283 556.471 280.816 556.471 276.448V273.874C550.959 279.958 542.847 283 532.135 283H527.767C517.419 283 509.723 280.504 504.679 275.512C499.687 270.468 497.191 262.772 497.191 252.424V210.46C497.191 206.092 499.375 203.908 503.743 203.908C508.111 203.908 510.295 206.092 510.295 210.46V252.424C510.295 259.184 511.517 263.786 513.961 266.23C516.457 268.674 521.059 269.896 527.767 269.896H532.135C538.375 269.896 543.809 269.168 548.437 267.712C553.117 266.256 555.795 264.02 556.471 261.004V210.46C556.471 206.092 558.655 203.908 563.023 203.908ZM608.592 283C604.224 283 602.04 280.816 602.04 276.448V210.46C602.04 206.092 604.224 203.908 608.592 203.908C612.96 203.908 615.144 206.092 615.144 210.46V213.034C620.656 206.95 628.768 203.908 639.48 203.908H643.848C654.248 203.908 661.944 206.404 666.936 211.396C671.928 216.388 674.424 224.084 674.424 234.484V276.448C674.424 280.816 672.24 283 667.872 283C663.504 283 661.32 280.816 661.32 276.448V234.484C661.32 227.672 660.072 223.07 657.576 220.678C655.132 218.234 650.556 217.012 643.848 217.012H639.48C633.24 217.012 627.806 217.74 623.178 219.196C618.55 220.6 615.872 222.836 615.144 225.904V276.448C615.144 280.816 612.96 283 608.592 283ZM738.713 283C728.417 283 720.825 280.556 715.937 275.668C711.049 270.78 708.605 263.24 708.605 253.048V217.012H700.961C696.593 217.012 694.409 214.828 694.409 210.46C694.409 206.092 696.593 203.908 700.961 203.908H708.605V192.52C708.605 188.152 710.789 185.968 715.157 185.968C719.525 185.968 721.709 188.152 721.709 192.52V203.908H739.649C744.017 203.908 746.201 206.092 746.201 210.46C746.201 214.828 744.017 217.012 739.649 217.012H721.709V253.048C721.709 259.652 722.905 264.124 725.297 266.464C727.689 268.752 732.161 269.896 738.713 269.896C740.741 269.896 742.327 270.416 743.471 271.456C744.667 272.496 745.265 274.16 745.265 276.448C745.265 280.816 743.081 283 738.713 283ZM773.799 248.836V252.58C773.799 259.288 775.021 263.864 777.465 266.308C779.909 268.7 784.511 269.896 791.271 269.896H804.063C809.367 269.896 813.293 269.402 815.841 268.414C818.389 267.426 820.079 265.684 820.911 263.188C821.483 261.212 822.263 259.704 823.251 258.664C824.291 257.624 825.851 257.104 827.931 257.104C830.115 257.104 831.779 257.676 832.923 258.82C834.067 259.964 834.431 261.628 834.015 263.812C832.871 270.26 829.803 275.07 824.811 278.242C819.819 281.414 812.903 283 804.063 283H791.271C780.923 283 773.227 280.504 768.183 275.512C763.191 270.52 760.695 262.876 760.695 252.58V234.484C760.695 223.928 763.191 216.18 768.183 211.24C773.227 206.248 780.923 203.804 791.271 203.908H804.063C814.463 203.908 822.159 206.404 827.151 211.396C832.143 216.336 834.639 224.032 834.639 234.484V242.284C834.639 246.652 832.455 248.836 828.087 248.836H773.799ZM791.271 217.012C784.511 216.908 779.909 218.078 777.465 220.522C775.021 222.966 773.799 227.62 773.799 234.484V235.732H821.535V234.484C821.535 227.672 820.313 223.07 817.869 220.678C815.477 218.234 810.875 217.012 804.063 217.012H791.271ZM869.862 283C865.494 283 863.31 280.816 863.31 276.448V210.46C863.31 206.092 865.494 203.908 869.862 203.908C874.23 203.908 876.414 206.092 876.414 210.46V216.544C879.482 212.384 883.382 209.238 888.114 207.106C892.898 204.974 898.358 203.908 904.494 203.908C908.862 203.908 911.046 206.092 911.046 210.46C911.046 214.828 908.862 217.012 904.494 217.012C895.498 217.012 888.634 218.676 883.902 222.004C879.17 225.332 876.674 229.726 876.414 235.186V276.448C876.414 280.816 874.23 283 869.862 283ZM985.491 283C981.123 283 978.939 280.816 978.939 276.448V183.784C978.939 179.416 981.123 177.232 985.491 177.232H1042.9C1044.93 177.232 1046.51 177.83 1047.66 179.026C1048.85 180.17 1049.45 181.756 1049.45 183.784C1049.45 188.152 1047.27 190.336 1042.9 190.336H992.043V223.096H1023.4C1027.77 223.096 1029.95 225.28 1029.95 229.648C1029.95 234.016 1027.77 236.2 1023.4 236.2H992.043V276.448C992.043 280.816 989.859 283 985.491 283ZM1082.19 283C1073.45 283 1066.95 280.868 1062.69 276.604C1058.42 272.34 1056.29 265.84 1056.29 257.104C1056.29 248.368 1058.4 241.868 1062.61 237.604C1066.87 233.34 1073.4 231.208 1082.19 231.208H1115.18C1114.87 225.748 1113.44 222.03 1110.89 220.054C1108.34 218.026 1103.98 217.012 1097.79 217.012H1088.74C1083.54 217.012 1079.67 217.376 1077.12 218.104C1074.57 218.78 1072.78 220.028 1071.74 221.848C1070.8 224.032 1069.84 225.54 1068.85 226.372C1067.86 227.204 1066.38 227.62 1064.4 227.62C1062.22 227.62 1060.5 227.022 1059.26 225.826C1058.01 224.578 1057.64 222.94 1058.16 220.912C1059.72 215.036 1062.97 210.746 1067.91 208.042C1072.91 205.286 1079.85 203.908 1088.74 203.908H1097.79C1108.19 203.908 1115.88 206.404 1120.88 211.396C1125.87 216.388 1128.36 224.084 1128.36 234.484V276.448C1128.36 280.816 1126.18 283 1121.81 283C1117.44 283 1115.26 280.816 1115.26 276.448V272.938C1109.7 279.646 1101.58 283 1090.92 283H1082.19ZM1082.19 269.896H1090.92C1094.77 269.896 1098.39 269.558 1101.77 268.882C1105.15 268.154 1108.03 266.854 1110.42 264.982C1112.87 263.11 1114.48 260.432 1115.26 256.948V244.312H1082.19C1077.04 244.312 1073.61 245.17 1071.89 246.886C1070.23 248.602 1069.4 252.008 1069.4 257.104C1069.4 262.252 1070.23 265.684 1071.89 267.4C1073.61 269.064 1077.04 269.896 1082.19 269.896ZM1223.59 203.908C1227.95 203.908 1230.14 206.092 1230.14 210.46V276.448C1230.14 280.816 1227.95 283 1223.59 283C1219.22 283 1217.03 280.816 1217.03 276.448V273.874C1211.52 279.958 1203.41 283 1192.7 283H1188.33C1177.98 283 1170.29 280.504 1165.24 275.512C1160.25 270.468 1157.75 262.772 1157.75 252.424V210.46C1157.75 206.092 1159.94 203.908 1164.31 203.908C1168.67 203.908 1170.86 206.092 1170.86 210.46V252.424C1170.86 259.184 1172.08 263.786 1174.52 266.23C1177.02 268.674 1181.62 269.896 1188.33 269.896H1192.7C1198.94 269.896 1204.37 269.168 1209 267.712C1213.68 266.256 1216.36 264.02 1217.03 261.004V210.46C1217.03 206.092 1219.22 203.908 1223.59 203.908ZM1286.16 283C1278.2 283 1272.27 281.05 1268.37 277.15C1264.53 273.198 1262.6 267.244 1262.6 259.288V179.728C1262.6 175.36 1264.79 173.176 1269.15 173.176C1273.52 173.176 1275.71 175.36 1275.71 179.728V259.288C1275.71 263.5 1276.38 266.334 1277.73 267.79C1279.14 269.194 1281.95 269.896 1286.16 269.896C1290.63 269.896 1292.87 272.08 1292.87 276.448C1293.02 280.816 1290.79 283 1286.16 283ZM1322.63 283C1318.26 283 1316.08 280.816 1316.08 276.448V179.728C1316.08 175.36 1318.26 173.176 1322.63 173.176C1327 173.176 1329.18 175.36 1329.18 179.728V238.306L1366.31 206.404C1369.64 203.544 1372.7 203.752 1375.51 207.028C1378.37 210.356 1378.16 213.424 1374.89 216.232L1346.42 240.802L1373.64 271.768C1376.55 275.148 1376.4 278.216 1373.17 280.972C1369.84 283.832 1366.72 283.624 1363.81 280.348L1336.43 249.46L1329.18 255.7V276.448C1329.18 280.816 1327 283 1322.63 283ZM1401.85 283C1397.48 283 1395.29 280.816 1395.29 276.448V210.46C1395.29 206.092 1397.48 203.908 1401.85 203.908C1406.21 203.908 1408.4 206.092 1408.4 210.46V213.034C1413.91 206.95 1422.02 203.908 1432.73 203.908H1437.1C1447.5 203.908 1455.2 206.404 1460.19 211.396C1465.18 216.388 1467.68 224.084 1467.68 234.484V276.448C1467.68 280.816 1465.49 283 1461.13 283C1456.76 283 1454.57 280.816 1454.57 276.448V234.484C1454.57 227.672 1453.33 223.07 1450.83 220.678C1448.39 218.234 1443.81 217.012 1437.1 217.012H1432.73C1426.49 217.012 1421.06 217.74 1416.43 219.196C1411.8 220.6 1409.13 222.836 1408.4 225.904V276.448C1408.4 280.816 1406.21 283 1401.85 283ZM1507.94 248.836V252.58C1507.94 259.288 1509.17 263.864 1511.61 266.308C1514.05 268.7 1518.66 269.896 1525.42 269.896H1538.21C1543.51 269.896 1547.44 269.402 1549.99 268.414C1552.53 267.426 1554.22 265.684 1555.06 263.188C1555.63 261.212 1556.41 259.704 1557.4 258.664C1558.44 257.624 1560 257.104 1562.08 257.104C1564.26 257.104 1565.92 257.676 1567.07 258.82C1568.21 259.964 1568.58 261.628 1568.16 263.812C1567.02 270.26 1563.95 275.07 1558.96 278.242C1553.96 281.414 1547.05 283 1538.21 283H1525.42C1515.07 283 1507.37 280.504 1502.33 275.512C1497.34 270.52 1494.84 262.876 1494.84 252.58V234.484C1494.84 223.928 1497.34 216.18 1502.33 211.24C1507.37 206.248 1515.07 203.804 1525.42 203.908H1538.21C1548.61 203.908 1556.3 206.404 1561.3 211.396C1566.29 216.336 1568.78 224.032 1568.78 234.484V242.284C1568.78 246.652 1566.6 248.836 1562.23 248.836H1507.94ZM1525.42 217.012C1518.66 216.908 1514.05 218.078 1511.61 220.522C1509.17 222.966 1507.94 227.62 1507.94 234.484V235.732H1555.68V234.484C1555.68 227.672 1554.46 223.07 1552.01 220.678C1549.62 218.234 1545.02 217.012 1538.21 217.012H1525.42ZM1604.01 283C1599.64 283 1597.45 280.816 1597.45 276.448V210.46C1597.45 206.092 1599.64 203.908 1604.01 203.908C1608.37 203.908 1610.56 206.092 1610.56 210.46V216.544C1613.63 212.384 1617.53 209.238 1622.26 207.106C1627.04 204.974 1632.5 203.908 1638.64 203.908C1643.01 203.908 1645.19 206.092 1645.19 210.46C1645.19 214.828 1643.01 217.012 1638.64 217.012C1629.64 217.012 1622.78 218.676 1618.05 222.004C1613.31 225.332 1610.82 229.726 1610.56 235.186V276.448C1610.56 280.816 1608.37 283 1604.01 283Z" fill="white"/>
<path d="M378.369 281.05L376.928 282.436L376.955 282.464L376.983 282.492L378.369 281.05ZM378.369 179.26L379.784 180.674L379.784 180.674L378.369 179.26ZM387.495 179.26L386.054 180.646L386.081 180.674L386.109 180.702L387.495 179.26ZM389.523 222.94H387.523V224.94H389.523V222.94ZM453.171 222.94V224.94H455.171V222.94H453.171ZM455.121 179.26L456.536 180.674L456.549 180.66L456.563 180.646L455.121 179.26ZM464.247 179.26L462.806 180.646L462.833 180.674L462.861 180.702L464.247 179.26ZM464.247 281.05L465.662 282.464L465.662 282.464L464.247 281.05ZM455.121 281.05L453.68 282.436L453.693 282.45L453.707 282.464L455.121 281.05ZM453.171 236.044H455.171V234.044H453.171V236.044ZM389.523 236.044V234.044H387.523V236.044H389.523ZM387.495 281.05L388.91 282.464L388.91 282.464L387.495 281.05ZM382.971 281C381.822 281 380.773 280.587 379.756 279.608L376.983 282.492C378.67 284.113 380.688 285 382.971 285V281ZM379.811 279.664C378.833 278.646 378.419 277.597 378.419 276.448H374.419C374.419 278.731 375.306 280.75 376.928 282.436L379.811 279.664ZM378.419 276.448V183.784H374.419V276.448H378.419ZM378.419 183.784C378.419 182.639 378.829 181.629 379.784 180.674L376.955 177.846C375.31 179.491 374.419 181.497 374.419 183.784H378.419ZM379.784 180.674C380.807 179.65 381.849 179.232 382.971 179.232V175.232C380.662 175.232 378.635 176.166 376.955 177.846L379.784 180.674ZM382.971 179.232C384.09 179.232 385.092 179.646 386.054 180.646L388.937 177.874C387.299 176.17 385.285 175.232 382.971 175.232V179.232ZM386.109 180.702C387.109 181.663 387.523 182.666 387.523 183.784H391.523C391.523 181.47 390.585 179.457 388.882 177.818L386.109 180.702ZM387.523 183.784V222.94H391.523V183.784H387.523ZM389.523 224.94H453.171V220.94H389.523V224.94ZM455.171 222.94V183.784H451.171V222.94H455.171ZM455.171 183.784C455.171 182.639 455.581 181.629 456.536 180.674L453.707 177.846C452.062 179.491 451.171 181.497 451.171 183.784H455.171ZM456.563 180.646C457.512 179.66 458.535 179.232 459.723 179.232V175.232C457.375 175.232 455.331 176.156 453.68 177.874L456.563 180.646ZM459.723 179.232C460.842 179.232 461.844 179.646 462.806 180.646L465.689 177.874C464.051 176.17 462.037 175.232 459.723 175.232V179.232ZM462.861 180.702C463.861 181.663 464.275 182.666 464.275 183.784H468.275C468.275 181.47 467.337 179.457 465.634 177.818L462.861 180.702ZM464.275 183.784V276.448H468.275V183.784H464.275ZM464.275 276.448C464.275 277.571 463.857 278.612 462.833 279.636L465.662 282.464C467.342 280.784 468.275 278.757 468.275 276.448H464.275ZM462.833 279.636C461.879 280.59 460.868 281 459.723 281V285C462.01 285 464.016 284.11 465.662 282.464L462.833 279.636ZM459.723 281C458.509 281 457.477 280.577 456.536 279.636L453.707 282.464C455.365 284.123 457.402 285 459.723 285V281ZM456.563 279.664C455.585 278.646 455.171 277.597 455.171 276.448H451.171C451.171 278.731 452.058 280.75 453.68 282.436L456.563 279.664ZM455.171 276.448V236.044H451.171V276.448H455.171ZM453.171 234.044H389.523V238.044H453.171V234.044ZM387.523 236.044V276.448H391.523V236.044H387.523ZM387.523 276.448C387.523 277.571 387.105 278.612 386.081 279.636L388.91 282.464C390.59 280.784 391.523 278.757 391.523 276.448H387.523ZM386.081 279.636C385.127 280.59 384.116 281 382.971 281V285C385.258 285 387.264 284.11 388.91 282.464L386.081 279.636ZM556.471 273.874H558.471V268.688L554.989 272.531L556.471 273.874ZM504.679 275.512L503.258 276.919L503.265 276.926L503.272 276.934L504.679 275.512ZM513.961 266.23L512.547 267.644L512.555 267.652L512.562 267.659L513.961 266.23ZM548.437 267.712L547.843 265.802L547.837 265.804L548.437 267.712ZM556.471 261.004L558.423 261.441L558.471 261.225V261.004H556.471ZM563.023 205.908C564.899 205.908 565.938 206.376 566.523 206.96C567.108 207.545 567.575 208.584 567.575 210.46H571.575C571.575 207.968 570.951 205.731 569.352 204.132C567.752 202.532 565.516 201.908 563.023 201.908V205.908ZM567.575 210.46V276.448H571.575V210.46H567.575ZM567.575 276.448C567.575 278.324 567.108 279.363 566.523 279.948C565.938 280.532 564.899 281 563.023 281V285C565.516 285 567.752 284.376 569.352 282.776C570.951 281.177 571.575 278.94 571.575 276.448H567.575ZM563.023 281C561.148 281 560.108 280.532 559.524 279.948C558.939 279.363 558.471 278.324 558.471 276.448H554.471C554.471 278.94 555.096 281.177 556.695 282.776C558.294 284.376 560.531 285 563.023 285V281ZM558.471 276.448V273.874H554.471V276.448H558.471ZM554.989 272.531C549.963 278.079 542.465 281 532.135 281V285C543.23 285 551.955 281.837 557.954 275.217L554.989 272.531ZM532.135 281H527.767V285H532.135V281ZM527.767 281C517.705 281 510.614 278.571 506.086 274.09L503.272 276.934C508.833 282.437 517.133 285 527.767 285V281ZM506.101 274.105C501.62 269.578 499.191 262.486 499.191 252.424H495.191C495.191 263.058 497.755 271.358 503.258 276.919L506.101 274.105ZM499.191 252.424V210.46H495.191V252.424H499.191ZM499.191 210.46C499.191 208.584 499.659 207.545 500.244 206.96C500.828 206.376 501.868 205.908 503.743 205.908V201.908C501.251 201.908 499.014 202.532 497.415 204.132C495.816 205.731 495.191 207.968 495.191 210.46H499.191ZM503.743 205.908C505.619 205.908 506.658 206.376 507.243 206.96C507.828 207.545 508.295 208.584 508.295 210.46H512.295C512.295 207.968 511.671 205.731 510.072 204.132C508.472 202.532 506.236 201.908 503.743 201.908V205.908ZM508.295 210.46V252.424H512.295V210.46H508.295ZM508.295 252.424C508.295 259.27 509.501 264.598 512.547 267.644L515.376 264.816C513.534 262.974 512.295 259.098 512.295 252.424H508.295ZM512.562 267.659C515.653 270.686 520.961 271.896 527.767 271.896V267.896C521.158 267.896 517.262 266.662 515.361 264.801L512.562 267.659ZM527.767 271.896H532.135V267.896H527.767V271.896ZM532.135 271.896C538.524 271.896 544.169 271.152 549.038 269.62L547.837 265.804C543.45 267.184 538.227 267.896 532.135 267.896V271.896ZM549.031 269.622C553.97 268.085 557.513 265.502 558.423 261.441L554.52 260.567C554.078 262.538 552.265 264.427 547.843 265.802L549.031 269.622ZM558.471 261.004V210.46H554.471V261.004H558.471ZM558.471 210.46C558.471 208.584 558.939 207.545 559.524 206.96C560.108 206.376 561.148 205.908 563.023 205.908V201.908C560.531 201.908 558.294 202.532 556.695 204.132C555.096 205.731 554.471 207.968 554.471 210.46H558.471ZM615.144 213.034H613.144V218.22L616.627 214.377L615.144 213.034ZM666.936 211.396L668.351 209.982L668.351 209.982L666.936 211.396ZM657.576 220.678L656.162 222.092L656.177 222.107L656.193 222.122L657.576 220.678ZM623.178 219.196L623.759 221.11L623.769 221.107L623.779 221.104L623.178 219.196ZM615.144 225.904L613.198 225.442L613.144 225.67V225.904H615.144ZM608.592 281C606.717 281 605.677 280.532 605.093 279.948C604.508 279.363 604.04 278.324 604.04 276.448H600.04C600.04 278.94 600.665 281.177 602.264 282.776C603.864 284.376 606.1 285 608.592 285V281ZM604.04 276.448V210.46H600.04V276.448H604.04ZM604.04 210.46C604.04 208.584 604.508 207.545 605.093 206.96C605.677 206.376 606.717 205.908 608.592 205.908V201.908C606.1 201.908 603.864 202.532 602.264 204.132C600.665 205.731 600.04 207.968 600.04 210.46H604.04ZM608.592 205.908C610.468 205.908 611.508 206.376 612.092 206.96C612.677 207.545 613.144 208.584 613.144 210.46H617.144C617.144 207.968 616.52 205.731 614.921 204.132C613.321 202.532 611.085 201.908 608.592 201.908V205.908ZM613.144 210.46V213.034H617.144V210.46H613.144ZM616.627 214.377C621.652 208.829 629.151 205.908 639.48 205.908V201.908C628.386 201.908 619.66 205.071 613.662 211.691L616.627 214.377ZM639.48 205.908H643.848V201.908H639.48V205.908ZM643.848 205.908C653.968 205.908 661.051 208.339 665.522 212.81L668.351 209.982C662.838 204.469 654.529 201.908 643.848 201.908V205.908ZM665.522 212.81C669.993 217.281 672.424 224.365 672.424 234.484H676.424C676.424 223.803 673.864 215.495 668.351 209.982L665.522 212.81ZM672.424 234.484V276.448H676.424V234.484H672.424ZM672.424 276.448C672.424 278.324 671.957 279.363 671.372 279.948C670.788 280.532 669.748 281 667.872 281V285C670.365 285 672.601 284.376 674.201 282.776C675.8 281.177 676.424 278.94 676.424 276.448H672.424ZM667.872 281C665.997 281 664.957 280.532 664.373 279.948C663.788 279.363 663.32 278.324 663.32 276.448H659.32C659.32 278.94 659.945 281.177 661.544 282.776C663.144 284.376 665.38 285 667.872 285V281ZM663.32 276.448V234.484H659.32V276.448H663.32ZM663.32 234.484C663.32 227.592 662.092 222.235 658.96 219.234L656.193 222.122C658.053 223.905 659.32 227.752 659.32 234.484H663.32ZM658.991 219.264C655.946 216.219 650.647 215.012 643.848 215.012V219.012C650.466 219.012 654.319 220.249 656.162 222.092L658.991 219.264ZM643.848 215.012H639.48V219.012H643.848V215.012ZM639.48 215.012C633.092 215.012 627.447 215.756 622.578 217.288L623.779 221.104C628.166 219.724 633.389 219.012 639.48 219.012V215.012ZM622.598 217.282C617.68 218.774 614.167 221.36 613.198 225.442L617.09 226.366C617.578 224.312 619.421 222.426 623.759 221.11L622.598 217.282ZM613.144 225.904V276.448H617.144V225.904H613.144ZM613.144 276.448C613.144 278.324 612.677 279.363 612.092 279.948C611.508 280.532 610.468 281 608.592 281V285C611.085 285 613.321 284.376 614.921 282.776C616.52 281.177 617.144 278.94 617.144 276.448H613.144ZM708.605 217.012H710.605V215.012H708.605V217.012ZM708.605 203.908V205.908H710.605V203.908H708.605ZM721.709 203.908H719.709V205.908H721.709V203.908ZM721.709 217.012V215.012H719.709V217.012H721.709ZM725.297 266.464L723.899 267.894L723.907 267.902L723.915 267.909L725.297 266.464ZM743.471 271.456L742.126 272.936L742.142 272.951L742.159 272.965L743.471 271.456ZM738.713 281C728.691 281 721.715 278.617 717.352 274.254L714.523 277.082C719.936 282.495 728.144 285 738.713 285V281ZM717.352 274.254C712.985 269.887 710.605 262.96 710.605 253.048H706.605C706.605 263.52 709.114 271.673 714.523 277.082L717.352 274.254ZM710.605 253.048V217.012H706.605V253.048H710.605ZM708.605 215.012H700.961V219.012H708.605V215.012ZM700.961 215.012C699.086 215.012 698.046 214.544 697.462 213.96C696.877 213.375 696.409 212.336 696.409 210.46H692.409C692.409 212.952 693.034 215.189 694.633 216.788C696.233 218.388 698.469 219.012 700.961 219.012V215.012ZM696.409 210.46C696.409 208.584 696.877 207.545 697.462 206.96C698.046 206.376 699.086 205.908 700.961 205.908V201.908C698.469 201.908 696.233 202.532 694.633 204.132C693.034 205.731 692.409 207.968 692.409 210.46H696.409ZM700.961 205.908H708.605V201.908H700.961V205.908ZM710.605 203.908V192.52H706.605V203.908H710.605ZM710.605 192.52C710.605 190.644 711.073 189.605 711.658 189.02C712.242 188.436 713.282 187.968 715.157 187.968V183.968C712.665 183.968 710.429 184.592 708.829 186.192C707.23 187.791 706.605 190.028 706.605 192.52H710.605ZM715.157 187.968C717.033 187.968 718.073 188.436 718.657 189.02C719.242 189.605 719.709 190.644 719.709 192.52H723.709C723.709 190.028 723.085 187.791 721.486 186.192C719.886 184.592 717.65 183.968 715.157 183.968V187.968ZM719.709 192.52V203.908H723.709V192.52H719.709ZM721.709 205.908H739.649V201.908H721.709V205.908ZM739.649 205.908C741.525 205.908 742.565 206.376 743.149 206.96C743.734 207.545 744.201 208.584 744.201 210.46H748.201C748.201 207.968 747.577 205.731 745.978 204.132C744.378 202.532 742.142 201.908 739.649 201.908V205.908ZM744.201 210.46C744.201 212.336 743.734 213.375 743.149 213.96C742.565 214.544 741.525 215.012 739.649 215.012V219.012C742.142 219.012 744.378 218.388 745.978 216.788C747.577 215.189 748.201 212.952 748.201 210.46H744.201ZM739.649 215.012H721.709V219.012H739.649V215.012ZM719.709 217.012V253.048H723.709V217.012H719.709ZM719.709 253.048C719.709 259.731 720.886 264.946 723.899 267.894L726.696 265.034C724.925 263.302 723.709 259.573 723.709 253.048H719.709ZM723.915 267.909C726.906 270.771 732.084 271.896 738.713 271.896V267.896C732.239 267.896 728.473 266.733 726.68 265.019L723.915 267.909ZM738.713 271.896C740.403 271.896 741.453 272.324 742.126 272.936L744.817 269.976C743.202 268.508 741.08 267.896 738.713 267.896V271.896ZM742.159 272.965C742.753 273.481 743.265 274.475 743.265 276.448H747.265C747.265 273.845 746.582 271.511 744.784 269.947L742.159 272.965ZM743.265 276.448C743.265 278.324 742.798 279.363 742.213 279.948C741.629 280.532 740.589 281 738.713 281V285C741.206 285 743.442 284.376 745.042 282.776C746.641 281.177 747.265 278.94 747.265 276.448H743.265ZM773.799 248.836V246.836H771.799V248.836H773.799ZM777.465 266.308L776.051 267.722L776.058 267.73L776.066 267.737L777.465 266.308ZM815.841 268.414L816.564 270.279L816.564 270.279L815.841 268.414ZM820.911 263.188L822.808 263.82L822.821 263.783L822.832 263.744L820.911 263.188ZM823.251 258.664L821.837 257.25L821.819 257.268L821.801 257.286L823.251 258.664ZM832.923 258.82L834.337 257.406L834.337 257.406L832.923 258.82ZM834.015 263.812L832.05 263.438L832.048 263.45L832.046 263.463L834.015 263.812ZM768.183 275.512L766.769 276.926L766.776 276.934L768.183 275.512ZM768.183 211.24L769.59 212.662L769.59 212.662L768.183 211.24ZM791.271 203.908L791.251 205.908L791.261 205.908H791.271V203.908ZM827.151 211.396L825.737 212.81L825.744 212.818L827.151 211.396ZM791.271 217.012L791.24 219.012L791.255 219.012H791.271V217.012ZM777.465 220.522L776.051 219.108L776.051 219.108L777.465 220.522ZM773.799 235.732H771.799V237.732H773.799V235.732ZM821.535 235.732V237.732H823.535V235.732H821.535ZM817.869 220.678L816.44 222.077L816.455 222.092L816.47 222.107L817.869 220.678ZM771.799 248.836V252.58H775.799V248.836H771.799ZM771.799 252.58C771.799 259.379 773.006 264.678 776.051 267.722L778.879 264.894C777.036 263.05 775.799 259.197 775.799 252.58H771.799ZM776.066 267.737C779.112 270.719 784.432 271.896 791.271 271.896V267.896C784.589 267.896 780.706 266.681 778.864 264.879L776.066 267.737ZM791.271 271.896H804.063V267.896H791.271V271.896ZM804.063 271.896C809.426 271.896 813.658 271.405 816.564 270.279L815.118 266.549C812.927 267.399 809.308 267.896 804.063 267.896V271.896ZM816.564 270.279C819.643 269.085 821.78 266.906 822.808 263.82L819.013 262.556C818.378 264.462 817.135 265.767 815.118 266.549L816.564 270.279ZM822.832 263.744C823.351 261.951 824.008 260.771 824.701 260.042L821.801 257.286C820.518 258.637 819.615 260.473 818.99 262.632L822.832 263.744ZM824.665 260.078C825.198 259.546 826.159 259.104 827.931 259.104V255.104C825.543 255.104 823.384 255.702 821.837 257.25L824.665 260.078ZM827.931 259.104C829.775 259.104 830.856 259.582 831.509 260.234L834.337 257.406C832.702 255.77 830.454 255.104 827.931 255.104V259.104ZM831.509 260.234C832.021 260.747 832.393 261.639 832.05 263.438L835.98 264.186C836.469 261.617 836.113 259.181 834.337 257.406L831.509 260.234ZM832.046 263.463C830.988 269.424 828.203 273.717 823.738 276.554L825.883 279.93C831.402 276.423 834.754 271.096 835.984 264.161L832.046 263.463ZM823.738 276.554C819.188 279.445 812.699 281 804.063 281V285C813.107 285 820.449 283.383 825.883 279.93L823.738 276.554ZM804.063 281H791.271V285H804.063V281ZM791.271 281C781.209 281 774.117 278.571 769.59 274.09L766.776 276.934C772.336 282.437 780.637 285 791.271 285V281ZM769.597 274.098C765.123 269.623 762.695 262.589 762.695 252.58H758.695C758.695 263.163 761.259 271.417 766.769 276.926L769.597 274.098ZM762.695 252.58V234.484H758.695V252.58H762.695ZM762.695 234.484C762.695 224.196 765.132 217.073 769.59 212.662L766.776 209.818C761.25 215.287 758.695 223.66 758.695 234.484H762.695ZM769.59 212.662C774.11 208.188 781.192 205.807 791.251 205.908L791.291 201.908C780.654 201.801 772.344 204.308 766.776 209.818L769.59 212.662ZM791.271 205.908H804.063V201.908H791.271V205.908ZM804.063 205.908C814.182 205.908 821.266 208.339 825.737 212.81L828.565 209.982C823.052 204.469 814.743 201.908 804.063 201.908V205.908ZM825.744 212.818C830.205 217.232 832.639 224.307 832.639 234.484H836.639C836.639 223.757 834.08 215.44 828.558 209.974L825.744 212.818ZM832.639 234.484V242.284H836.639V234.484H832.639ZM832.639 242.284C832.639 244.16 832.171 245.199 831.587 245.784C831.002 246.368 829.963 246.836 828.087 246.836V250.836C830.579 250.836 832.816 250.212 834.415 248.612C836.014 247.013 836.639 244.776 836.639 242.284H832.639ZM828.087 246.836H773.799V250.836H828.087V246.836ZM791.302 215.012C784.456 214.907 779.11 216.048 776.051 219.108L778.879 221.936C780.707 220.108 784.565 218.909 791.24 219.012L791.302 215.012ZM776.051 219.108C773 222.158 771.799 227.545 771.799 234.484H775.799C775.799 227.695 777.041 223.774 778.879 221.936L776.051 219.108ZM771.799 234.484V235.732H775.799V234.484H771.799ZM773.799 237.732H821.535V233.732H773.799V237.732ZM823.535 235.732V234.484H819.535V235.732H823.535ZM823.535 234.484C823.535 227.599 822.335 222.25 819.268 219.249L816.47 222.107C818.291 223.89 819.535 227.745 819.535 234.484H823.535ZM819.298 219.279C816.297 216.212 810.947 215.012 804.063 215.012V219.012C810.802 219.012 814.657 220.256 816.44 222.077L819.298 219.279ZM804.063 215.012H791.271V219.012H804.063V215.012ZM876.414 216.544H874.414V222.625L878.024 217.731L876.414 216.544ZM888.114 207.106L887.3 205.279L887.292 205.283L888.114 207.106ZM883.902 222.004L882.751 220.368L882.751 220.368L883.902 222.004ZM876.414 235.186L874.416 235.091L874.414 235.138V235.186H876.414ZM869.862 281C867.986 281 866.947 280.532 866.362 279.948C865.778 279.363 865.31 278.324 865.31 276.448H861.31C861.31 278.94 861.934 281.177 863.534 282.776C865.133 284.376 867.37 285 869.862 285V281ZM865.31 276.448V210.46H861.31V276.448H865.31ZM865.31 210.46C865.31 208.584 865.778 207.545 866.362 206.96C866.947 206.376 867.986 205.908 869.862 205.908V201.908C867.37 201.908 865.133 202.532 863.534 204.132C861.934 205.731 861.31 207.968 861.31 210.46H865.31ZM869.862 205.908C871.738 205.908 872.777 206.376 873.362 206.96C873.946 207.545 874.414 208.584 874.414 210.46H878.414C878.414 207.968 877.79 205.731 876.19 204.132C874.591 202.532 872.354 201.908 869.862 201.908V205.908ZM874.414 210.46V216.544H878.414V210.46H874.414ZM878.024 217.731C880.887 213.848 884.515 210.921 888.936 208.929L887.292 205.283C882.249 207.555 878.077 210.919 874.804 215.357L878.024 217.731ZM888.928 208.933C893.416 206.933 898.591 205.908 904.494 205.908V201.908C898.125 201.908 892.38 203.015 887.3 205.279L888.928 208.933ZM904.494 205.908C906.37 205.908 907.409 206.376 907.994 206.96C908.578 207.545 909.046 208.584 909.046 210.46H913.046C913.046 207.968 912.422 205.731 910.822 204.132C909.223 202.532 906.986 201.908 904.494 201.908V205.908ZM909.046 210.46C909.046 212.336 908.578 213.375 907.994 213.96C907.409 214.544 906.37 215.012 904.494 215.012V219.012C906.986 219.012 909.223 218.388 910.822 216.788C912.422 215.189 913.046 212.952 913.046 210.46H909.046ZM904.494 215.012C895.299 215.012 887.96 216.705 882.751 220.368L885.052 223.64C889.308 220.647 895.697 219.012 904.494 219.012V215.012ZM882.751 220.368C877.548 224.027 874.708 228.973 874.416 235.091L878.412 235.281C878.64 230.479 880.791 226.637 885.052 223.64L882.751 220.368ZM874.414 235.186V276.448H878.414V235.186H874.414ZM874.414 276.448C874.414 278.324 873.946 279.363 873.362 279.948C872.777 280.532 871.738 281 869.862 281V285C872.354 285 874.591 284.376 876.19 282.776C877.79 281.177 878.414 278.94 878.414 276.448H874.414ZM1047.66 179.026L1046.21 180.408L1046.24 180.441L1046.27 180.471L1047.66 179.026ZM992.043 190.336V188.336H990.043V190.336H992.043ZM992.043 223.096H990.043V225.096H992.043V223.096ZM992.043 236.2V234.2H990.043V236.2H992.043ZM985.491 281C983.615 281 982.576 280.532 981.991 279.948C981.406 279.363 980.939 278.324 980.939 276.448H976.939C976.939 278.94 977.563 281.177 979.163 282.776C980.762 284.376 982.999 285 985.491 285V281ZM980.939 276.448V183.784H976.939V276.448H980.939ZM980.939 183.784C980.939 181.908 981.406 180.869 981.991 180.284C982.576 179.7 983.615 179.232 985.491 179.232V175.232C982.999 175.232 980.762 175.856 979.163 177.456C977.563 179.055 976.939 181.292 976.939 183.784H980.939ZM985.491 179.232H1042.9V175.232H985.491V179.232ZM1042.9 179.232C1044.51 179.232 1045.53 179.693 1046.21 180.408L1049.1 177.644C1047.5 175.967 1045.34 175.232 1042.9 175.232V179.232ZM1046.27 180.471C1046.99 181.156 1047.45 182.17 1047.45 183.784H1051.45C1051.45 181.342 1050.72 179.184 1049.04 177.581L1046.27 180.471ZM1047.45 183.784C1047.45 185.66 1046.98 186.699 1046.4 187.284C1045.81 187.868 1044.77 188.336 1042.9 188.336V192.336C1045.39 192.336 1047.63 191.712 1049.23 190.112C1050.83 188.513 1051.45 186.276 1051.45 183.784H1047.45ZM1042.9 188.336H992.043V192.336H1042.9V188.336ZM990.043 190.336V223.096H994.043V190.336H990.043ZM992.043 225.096H1023.4V221.096H992.043V225.096ZM1023.4 225.096C1025.27 225.096 1026.31 225.564 1026.9 226.148C1027.48 226.733 1027.95 227.772 1027.95 229.648H1031.95C1031.95 227.156 1031.33 224.919 1029.73 223.32C1028.13 221.72 1025.89 221.096 1023.4 221.096V225.096ZM1027.95 229.648C1027.95 231.524 1027.48 232.563 1026.9 233.148C1026.31 233.732 1025.27 234.2 1023.4 234.2V238.2C1025.89 238.2 1028.13 237.576 1029.73 235.976C1031.33 234.377 1031.95 232.14 1031.95 229.648H1027.95ZM1023.4 234.2H992.043V238.2H1023.4V234.2ZM990.043 236.2V276.448H994.043V236.2H990.043ZM990.043 276.448C990.043 278.324 989.575 279.363 988.991 279.948C988.406 280.532 987.367 281 985.491 281V285C987.983 285 990.22 284.376 991.819 282.776C993.418 281.177 994.043 278.94 994.043 276.448H990.043ZM1062.69 276.604L1061.27 278.018L1061.27 278.018L1062.69 276.604ZM1062.61 237.604L1061.2 236.19L1061.19 236.198L1062.61 237.604ZM1115.18 231.208V233.208H1117.3L1117.18 231.094L1115.18 231.208ZM1110.89 220.054L1109.65 221.619L1109.66 221.627L1109.67 221.634L1110.89 220.054ZM1077.12 218.104L1077.63 220.037L1077.65 220.032L1077.67 220.027L1077.12 218.104ZM1071.74 221.848L1070 220.856L1069.94 220.955L1069.9 221.06L1071.74 221.848ZM1068.85 226.372L1070.14 227.902L1070.14 227.902L1068.85 226.372ZM1059.26 225.826L1057.84 227.24L1057.86 227.255L1057.87 227.27L1059.26 225.826ZM1058.16 220.912L1056.23 220.399L1056.23 220.407L1056.23 220.415L1058.16 220.912ZM1067.91 208.042L1068.88 209.796L1068.88 209.793L1067.91 208.042ZM1120.88 211.396L1119.46 212.81L1119.46 212.81L1120.88 211.396ZM1115.26 272.938H1117.26V267.394L1113.72 271.661L1115.26 272.938ZM1101.77 268.882L1102.16 270.843L1102.17 270.84L1102.19 270.837L1101.77 268.882ZM1110.42 264.982L1109.21 263.394L1109.2 263.401L1109.19 263.407L1110.42 264.982ZM1115.26 256.948L1117.21 257.385L1117.26 257.169V256.948H1115.26ZM1115.26 244.312H1117.26V242.312H1115.26V244.312ZM1071.89 246.886L1070.48 245.472L1070.47 245.483L1070.46 245.494L1071.89 246.886ZM1071.89 267.4L1070.46 268.792L1070.48 268.814L1070.5 268.836L1071.89 267.4ZM1082.19 281C1073.74 281 1067.85 278.938 1064.1 275.19L1061.27 278.018C1066.05 282.798 1073.16 285 1082.19 285V281ZM1064.1 275.19C1060.35 271.441 1058.29 265.548 1058.29 257.104H1054.29C1054.29 266.132 1056.5 273.239 1061.27 278.018L1064.1 275.19ZM1058.29 257.104C1058.29 248.654 1060.33 242.757 1064.03 239.01L1061.19 236.198C1056.47 240.979 1054.29 248.082 1054.29 257.104H1058.29ZM1064.03 239.018C1067.77 235.272 1073.69 233.208 1082.19 233.208V229.208C1073.11 229.208 1065.98 231.408 1061.2 236.19L1064.03 239.018ZM1082.19 233.208H1115.18V229.208H1082.19V233.208ZM1117.18 231.094C1116.86 225.442 1115.36 220.986 1112.12 218.474L1109.67 221.634C1111.52 223.074 1112.89 226.054 1113.19 231.322L1117.18 231.094ZM1112.14 218.489C1109.04 216.019 1104.08 215.012 1097.79 215.012V219.012C1103.88 219.012 1107.65 220.033 1109.65 221.619L1112.14 218.489ZM1097.79 215.012H1088.74V219.012H1097.79V215.012ZM1088.74 215.012C1083.5 215.012 1079.39 215.374 1076.57 216.181L1077.67 220.027C1079.94 219.378 1083.58 219.012 1088.74 219.012V215.012ZM1076.61 216.171C1073.68 216.947 1071.37 218.458 1070 220.856L1073.47 222.84C1074.18 221.598 1075.46 220.613 1077.63 220.037L1076.61 216.171ZM1069.9 221.06C1069 223.16 1068.19 224.317 1067.56 224.842L1070.14 227.902C1071.49 226.763 1072.6 224.904 1073.58 222.636L1069.9 221.06ZM1067.56 224.842C1067.08 225.246 1066.15 225.62 1064.4 225.62V229.62C1066.61 229.62 1068.64 229.162 1070.14 227.902L1067.56 224.842ZM1064.4 225.62C1062.59 225.62 1061.43 225.134 1060.64 224.382L1057.87 227.27C1059.58 228.91 1061.85 229.62 1064.4 229.62V225.62ZM1060.67 224.412C1060.02 223.764 1059.72 222.902 1060.1 221.409L1056.23 220.415C1055.57 222.978 1055.99 225.392 1057.84 227.24L1060.67 224.412ZM1060.1 221.425C1061.53 216.032 1064.46 212.215 1068.88 209.796L1066.95 206.288C1061.49 209.277 1057.92 214.04 1056.23 220.399L1060.1 221.425ZM1068.88 209.793C1073.46 207.267 1080.02 205.908 1088.74 205.908V201.908C1079.68 201.908 1072.36 203.305 1066.95 206.291L1068.88 209.793ZM1088.74 205.908H1097.79V201.908H1088.74V205.908ZM1097.79 205.908C1107.91 205.908 1114.99 208.339 1119.46 212.81L1122.29 209.982C1116.78 204.469 1108.47 201.908 1097.79 201.908V205.908ZM1119.46 212.81C1123.93 217.281 1126.36 224.365 1126.36 234.484H1130.36C1130.36 223.803 1127.8 215.495 1122.29 209.982L1119.46 212.81ZM1126.36 234.484V276.448H1130.36V234.484H1126.36ZM1126.36 276.448C1126.36 278.324 1125.9 279.363 1125.31 279.948C1124.73 280.532 1123.69 281 1121.81 281V285C1124.31 285 1126.54 284.376 1128.14 282.776C1129.74 281.177 1130.36 278.94 1130.36 276.448H1126.36ZM1121.81 281C1119.94 281 1118.9 280.532 1118.31 279.948C1117.73 279.363 1117.26 278.324 1117.26 276.448H1113.26C1113.26 278.94 1113.89 281.177 1115.48 282.776C1117.08 284.376 1119.32 285 1121.81 285V281ZM1117.26 276.448V272.938H1113.26V276.448H1117.26ZM1113.72 271.661C1108.62 277.81 1101.14 281 1090.92 281V285C1102.03 285 1110.77 281.482 1116.8 274.215L1113.72 271.661ZM1090.92 281H1082.19V285H1090.92V281ZM1082.19 271.896H1090.92V267.896H1082.19V271.896ZM1090.92 271.896C1094.89 271.896 1098.64 271.548 1102.16 270.843L1101.37 266.921C1098.14 267.568 1094.66 267.896 1090.92 267.896V271.896ZM1102.19 270.837C1105.82 270.054 1109 268.64 1111.66 266.557L1109.19 263.407C1107.07 265.068 1104.47 266.254 1101.35 266.927L1102.19 270.837ZM1111.64 266.57C1114.52 264.368 1116.35 261.25 1117.21 257.385L1113.31 256.511C1112.61 259.614 1111.22 261.852 1109.21 263.394L1111.64 266.57ZM1117.26 256.948V244.312H1113.26V256.948H1117.26ZM1115.26 242.312H1082.19V246.312H1115.26V242.312ZM1082.19 242.312C1079.52 242.312 1077.2 242.533 1075.27 243.015C1073.35 243.494 1071.68 244.266 1070.48 245.472L1073.31 248.3C1073.82 247.79 1074.72 247.275 1076.24 246.896C1077.74 246.52 1079.71 246.312 1082.19 246.312V242.312ZM1070.46 245.494C1069.29 246.699 1068.54 248.355 1068.08 250.253C1067.61 252.164 1067.4 254.461 1067.4 257.104H1071.4C1071.4 254.651 1071.6 252.697 1071.96 251.202C1072.33 249.694 1072.83 248.789 1073.33 248.278L1070.46 245.494ZM1067.4 257.104C1067.4 259.771 1067.61 262.087 1068.08 264.01C1068.54 265.919 1069.29 267.584 1070.46 268.792L1073.33 266.008C1072.84 265.5 1072.33 264.591 1071.96 263.068C1071.6 261.559 1071.4 259.585 1071.4 257.104H1067.4ZM1070.5 268.836C1071.71 270.007 1073.37 270.753 1075.28 271.216C1077.21 271.682 1079.52 271.896 1082.19 271.896V267.896C1079.71 267.896 1077.73 267.694 1076.23 267.328C1074.7 266.959 1073.79 266.457 1073.29 265.964L1070.5 268.836ZM1217.03 273.874H1219.03V268.688L1215.55 272.531L1217.03 273.874ZM1165.24 275.512L1163.82 276.919L1163.83 276.926L1163.83 276.934L1165.24 275.512ZM1174.52 266.23L1173.11 267.644L1173.12 267.652L1173.12 267.659L1174.52 266.23ZM1209 267.712L1208.41 265.802L1208.4 265.804L1209 267.712ZM1217.03 261.004L1218.99 261.441L1219.03 261.225V261.004H1217.03ZM1223.59 205.908C1225.46 205.908 1226.5 206.376 1227.09 206.96C1227.67 207.545 1228.14 208.584 1228.14 210.46H1232.14C1232.14 207.968 1231.51 205.731 1229.91 204.132C1228.31 202.532 1226.08 201.908 1223.59 201.908V205.908ZM1228.14 210.46V276.448H1232.14V210.46H1228.14ZM1228.14 276.448C1228.14 278.324 1227.67 279.363 1227.09 279.948C1226.5 280.532 1225.46 281 1223.59 281V285C1226.08 285 1228.31 284.376 1229.91 282.776C1231.51 281.177 1232.14 278.94 1232.14 276.448H1228.14ZM1223.59 281C1221.71 281 1220.67 280.532 1220.09 279.948C1219.5 279.363 1219.03 278.324 1219.03 276.448H1215.03C1215.03 278.94 1215.66 281.177 1217.26 282.776C1218.86 284.376 1221.09 285 1223.59 285V281ZM1219.03 276.448V273.874H1215.03V276.448H1219.03ZM1215.55 272.531C1210.53 278.079 1203.03 281 1192.7 281V285C1203.79 285 1212.52 281.837 1218.52 275.217L1215.55 272.531ZM1192.7 281H1188.33V285H1192.7V281ZM1188.33 281C1178.27 281 1171.18 278.571 1166.65 274.09L1163.83 276.934C1169.4 282.437 1177.7 285 1188.33 285V281ZM1166.66 274.105C1162.18 269.578 1159.75 262.486 1159.75 252.424H1155.75C1155.75 263.058 1158.32 271.358 1163.82 276.919L1166.66 274.105ZM1159.75 252.424V210.46H1155.75V252.424H1159.75ZM1159.75 210.46C1159.75 208.584 1160.22 207.545 1160.81 206.96C1161.39 206.376 1162.43 205.908 1164.31 205.908V201.908C1161.81 201.908 1159.58 202.532 1157.98 204.132C1156.38 205.731 1155.75 207.968 1155.75 210.46H1159.75ZM1164.31 205.908C1166.18 205.908 1167.22 206.376 1167.81 206.96C1168.39 207.545 1168.86 208.584 1168.86 210.46H1172.86C1172.86 207.968 1172.23 205.731 1170.63 204.132C1169.03 202.532 1166.8 201.908 1164.31 201.908V205.908ZM1168.86 210.46V252.424H1172.86V210.46H1168.86ZM1168.86 252.424C1168.86 259.27 1170.06 264.598 1173.11 267.644L1175.94 264.816C1174.1 262.974 1172.86 259.098 1172.86 252.424H1168.86ZM1173.12 267.659C1176.22 270.686 1181.52 271.896 1188.33 271.896V267.896C1181.72 267.896 1177.82 266.662 1175.92 264.801L1173.12 267.659ZM1188.33 271.896H1192.7V267.896H1188.33V271.896ZM1192.7 271.896C1199.09 271.896 1204.73 271.152 1209.6 269.62L1208.4 265.804C1204.01 267.184 1198.79 267.896 1192.7 267.896V271.896ZM1209.59 269.622C1214.53 268.085 1218.08 265.502 1218.99 261.441L1215.08 260.567C1214.64 262.538 1212.83 264.427 1208.41 265.802L1209.59 269.622ZM1219.03 261.004V210.46H1215.03V261.004H1219.03ZM1219.03 210.46C1219.03 208.584 1219.5 207.545 1220.09 206.96C1220.67 206.376 1221.71 205.908 1223.59 205.908V201.908C1221.09 201.908 1218.86 202.532 1217.26 204.132C1215.66 205.731 1215.03 207.968 1215.03 210.46H1219.03ZM1268.37 277.15L1266.94 278.545L1266.95 278.555L1266.96 278.564L1268.37 277.15ZM1277.73 267.79L1276.27 269.151L1276.29 269.178L1276.32 269.204L1277.73 267.79ZM1292.87 276.448H1290.87V276.484L1290.87 276.519L1292.87 276.448ZM1286.16 281C1278.5 281 1273.18 279.122 1269.79 275.736L1266.96 278.564C1271.37 282.978 1277.91 285 1286.16 285V281ZM1269.81 275.755C1266.46 272.314 1264.6 266.953 1264.6 259.288H1260.6C1260.6 267.535 1262.6 274.082 1266.94 278.545L1269.81 275.755ZM1264.6 259.288V179.728H1260.6V259.288H1264.6ZM1264.6 179.728C1264.6 177.852 1265.07 176.813 1265.66 176.228C1266.24 175.644 1267.28 175.176 1269.15 175.176V171.176C1266.66 171.176 1264.43 171.8 1262.83 173.4C1261.23 174.999 1260.6 177.236 1260.6 179.728H1264.6ZM1269.15 175.176C1271.03 175.176 1272.07 175.644 1272.65 176.228C1273.24 176.813 1273.71 177.852 1273.71 179.728H1277.71C1277.71 177.236 1277.08 174.999 1275.48 173.4C1273.88 171.8 1271.65 171.176 1269.15 171.176V175.176ZM1273.71 179.728V259.288H1277.71V179.728H1273.71ZM1273.71 259.288C1273.71 261.488 1273.88 263.417 1274.27 265.037C1274.65 266.643 1275.27 268.079 1276.27 269.151L1279.2 266.429C1278.84 266.045 1278.45 265.336 1278.16 264.108C1277.87 262.894 1277.71 261.3 1277.71 259.288H1273.71ZM1276.32 269.204C1277.37 270.254 1278.8 270.909 1280.41 271.31C1282.03 271.714 1283.96 271.896 1286.16 271.896V267.896C1284.15 267.896 1282.57 267.727 1281.38 267.429C1280.18 267.128 1279.5 266.73 1279.15 266.376L1276.32 269.204ZM1286.16 271.896C1288.1 271.896 1289.18 272.37 1289.79 272.965C1290.39 273.551 1290.87 274.584 1290.87 276.448H1294.87C1294.87 273.944 1294.22 271.701 1292.59 270.103C1290.96 268.514 1288.69 267.896 1286.16 267.896V271.896ZM1290.87 276.519C1290.93 278.372 1290.48 279.37 1289.91 279.931C1289.31 280.515 1288.2 281 1286.16 281V285C1288.75 285 1291.07 284.393 1292.7 282.793C1294.37 281.17 1294.96 278.892 1294.87 276.377L1290.87 276.519ZM1329.18 238.306H1327.18V242.661L1330.48 239.823L1329.18 238.306ZM1366.31 206.404L1367.61 207.921L1367.61 207.921L1366.31 206.404ZM1375.51 207.028L1373.99 208.33L1373.99 208.332L1375.51 207.028ZM1374.89 216.232L1373.59 214.713L1373.58 214.718L1374.89 216.232ZM1346.42 240.802L1345.11 239.288L1343.58 240.607L1344.92 242.122L1346.42 240.802ZM1373.64 271.768L1375.15 270.463L1375.15 270.455L1375.14 270.448L1373.64 271.768ZM1373.17 280.972L1371.87 279.452L1371.87 279.455L1373.17 280.972ZM1363.81 280.348L1362.31 281.675L1362.32 281.677L1363.81 280.348ZM1336.43 249.46L1337.93 248.133L1336.62 246.659L1335.13 247.944L1336.43 249.46ZM1329.18 255.7L1327.88 254.184L1327.18 254.782V255.7H1329.18ZM1322.63 281C1320.75 281 1319.71 280.532 1319.13 279.948C1318.54 279.363 1318.08 278.324 1318.08 276.448H1314.08C1314.08 278.94 1314.7 281.177 1316.3 282.776C1317.9 284.376 1320.14 285 1322.63 285V281ZM1318.08 276.448V179.728H1314.08V276.448H1318.08ZM1318.08 179.728C1318.08 177.852 1318.54 176.813 1319.13 176.228C1319.71 175.644 1320.75 175.176 1322.63 175.176V171.176C1320.14 171.176 1317.9 171.8 1316.3 173.4C1314.7 174.999 1314.08 177.236 1314.08 179.728H1318.08ZM1322.63 175.176C1324.5 175.176 1325.54 175.644 1326.13 176.228C1326.71 176.813 1327.18 177.852 1327.18 179.728H1331.18C1331.18 177.236 1330.56 174.999 1328.96 173.4C1327.36 171.8 1325.12 171.176 1322.63 171.176V175.176ZM1327.18 179.728V238.306H1331.18V179.728H1327.18ZM1330.48 239.823L1367.61 207.921L1365 204.887L1327.88 236.789L1330.48 239.823ZM1367.61 207.921C1369.05 206.686 1370.15 206.355 1370.97 206.41C1371.78 206.466 1372.8 206.932 1373.99 208.33L1377.03 205.726C1375.42 203.848 1373.49 202.572 1371.24 202.42C1368.99 202.267 1366.9 203.262 1365 204.887L1367.61 207.921ZM1373.99 208.332C1375.23 209.768 1375.56 210.868 1375.51 211.69C1375.45 212.503 1374.98 213.516 1373.59 214.713L1376.19 217.751C1378.07 216.14 1379.34 214.215 1379.5 211.96C1379.65 209.714 1378.65 207.616 1377.03 205.724L1373.99 208.332ZM1373.58 214.718L1345.11 239.288L1347.72 242.316L1376.19 217.746L1373.58 214.718ZM1344.92 242.122L1372.14 273.088L1375.14 270.448L1347.92 239.482L1344.92 242.122ZM1372.12 273.073C1373.4 274.549 1373.75 275.674 1373.71 276.502C1373.67 277.305 1373.23 278.291 1371.87 279.452L1374.47 282.492C1376.34 280.897 1377.59 278.971 1377.7 276.706C1377.82 274.466 1376.8 272.367 1375.15 270.463L1372.12 273.073ZM1371.87 279.455C1370.44 280.683 1369.33 281.023 1368.47 280.965C1367.61 280.908 1366.56 280.424 1365.31 279.019L1362.32 281.677C1363.98 283.548 1365.94 284.806 1368.2 284.957C1370.47 285.107 1372.58 284.121 1374.48 282.489L1371.87 279.455ZM1365.31 279.021L1337.93 248.133L1334.94 250.787L1362.31 281.675L1365.31 279.021ZM1335.13 247.944L1327.88 254.184L1330.48 257.216L1337.74 250.976L1335.13 247.944ZM1327.18 255.7V276.448H1331.18V255.7H1327.18ZM1327.18 276.448C1327.18 278.324 1326.71 279.363 1326.13 279.948C1325.54 280.532 1324.5 281 1322.63 281V285C1325.12 285 1327.36 284.376 1328.96 282.776C1330.56 281.177 1331.18 278.94 1331.18 276.448H1327.18ZM1408.4 213.034H1406.4V218.22L1409.88 214.377L1408.4 213.034ZM1460.19 211.396L1461.6 209.982L1461.6 209.982L1460.19 211.396ZM1450.83 220.678L1449.42 222.092L1449.43 222.107L1449.45 222.122L1450.83 220.678ZM1416.43 219.196L1417.01 221.11L1417.02 221.107L1417.03 221.104L1416.43 219.196ZM1408.4 225.904L1406.45 225.442L1406.4 225.67V225.904H1408.4ZM1401.85 281C1399.97 281 1398.93 280.532 1398.35 279.948C1397.76 279.363 1397.29 278.324 1397.29 276.448H1393.29C1393.29 278.94 1393.92 281.177 1395.52 282.776C1397.12 284.376 1399.35 285 1401.85 285V281ZM1397.29 276.448V210.46H1393.29V276.448H1397.29ZM1397.29 210.46C1397.29 208.584 1397.76 207.545 1398.35 206.96C1398.93 206.376 1399.97 205.908 1401.85 205.908V201.908C1399.35 201.908 1397.12 202.532 1395.52 204.132C1393.92 205.731 1393.29 207.968 1393.29 210.46H1397.29ZM1401.85 205.908C1403.72 205.908 1404.76 206.376 1405.35 206.96C1405.93 207.545 1406.4 208.584 1406.4 210.46H1410.4C1410.4 207.968 1409.77 205.731 1408.17 204.132C1406.58 202.532 1404.34 201.908 1401.85 201.908V205.908ZM1406.4 210.46V213.034H1410.4V210.46H1406.4ZM1409.88 214.377C1414.91 208.829 1422.4 205.908 1432.73 205.908V201.908C1421.64 201.908 1412.91 205.071 1406.92 211.691L1409.88 214.377ZM1432.73 205.908H1437.1V201.908H1432.73V205.908ZM1437.1 205.908C1447.22 205.908 1454.31 208.339 1458.78 212.81L1461.6 209.982C1456.09 204.469 1447.78 201.908 1437.1 201.908V205.908ZM1458.78 212.81C1463.25 217.281 1465.68 224.365 1465.68 234.484H1469.68C1469.68 223.803 1467.12 215.495 1461.6 209.982L1458.78 212.81ZM1465.68 234.484V276.448H1469.68V234.484H1465.68ZM1465.68 276.448C1465.68 278.324 1465.21 279.363 1464.63 279.948C1464.04 280.532 1463 281 1461.13 281V285C1463.62 285 1465.86 284.376 1467.45 282.776C1469.05 281.177 1469.68 278.94 1469.68 276.448H1465.68ZM1461.13 281C1459.25 281 1458.21 280.532 1457.63 279.948C1457.04 279.363 1456.57 278.324 1456.57 276.448H1452.57C1452.57 278.94 1453.2 281.177 1454.8 282.776C1456.4 284.376 1458.63 285 1461.13 285V281ZM1456.57 276.448V234.484H1452.57V276.448H1456.57ZM1456.57 234.484C1456.57 227.592 1455.35 222.235 1452.21 219.234L1449.45 222.122C1451.31 223.905 1452.57 227.752 1452.57 234.484H1456.57ZM1452.24 219.264C1449.2 216.219 1443.9 215.012 1437.1 215.012V219.012C1443.72 219.012 1447.57 220.249 1449.42 222.092L1452.24 219.264ZM1437.1 215.012H1432.73V219.012H1437.1V215.012ZM1432.73 215.012C1426.35 215.012 1420.7 215.756 1415.83 217.288L1417.03 221.104C1421.42 219.724 1426.64 219.012 1432.73 219.012V215.012ZM1415.85 217.282C1410.93 218.774 1407.42 221.36 1406.45 225.442L1410.34 226.366C1410.83 224.312 1412.68 222.426 1417.01 221.11L1415.85 217.282ZM1406.4 225.904V276.448H1410.4V225.904H1406.4ZM1406.4 276.448C1406.4 278.324 1405.93 279.363 1405.35 279.948C1404.76 280.532 1403.72 281 1401.85 281V285C1404.34 285 1406.58 284.376 1408.17 282.776C1409.77 281.177 1410.4 278.94 1410.4 276.448H1406.4ZM1507.94 248.836V246.836H1505.94V248.836H1507.94ZM1511.61 266.308L1510.2 267.722L1510.2 267.73L1510.21 267.737L1511.61 266.308ZM1549.99 268.414L1550.71 270.279L1550.71 270.279L1549.99 268.414ZM1555.06 263.188L1556.95 263.82L1556.97 263.783L1556.98 263.744L1555.06 263.188ZM1557.4 258.664L1555.98 257.25L1555.96 257.268L1555.95 257.286L1557.4 258.664ZM1567.07 258.82L1568.48 257.406L1568.48 257.406L1567.07 258.82ZM1568.16 263.812L1566.19 263.438L1566.19 263.45L1566.19 263.463L1568.16 263.812ZM1502.33 275.512L1500.91 276.926L1500.92 276.934L1502.33 275.512ZM1502.33 211.24L1503.73 212.662L1503.73 212.662L1502.33 211.24ZM1525.42 203.908L1525.4 205.908L1525.41 205.908H1525.42V203.908ZM1561.3 211.396L1559.88 212.81L1559.89 212.818L1561.3 211.396ZM1525.42 217.012L1525.38 219.012L1525.4 219.012H1525.42V217.012ZM1511.61 220.522L1510.2 219.108L1510.2 219.108L1511.61 220.522ZM1507.94 235.732H1505.94V237.732H1507.94V235.732ZM1555.68 235.732V237.732H1557.68V235.732H1555.68ZM1552.01 220.678L1550.58 222.077L1550.6 222.092L1550.61 222.107L1552.01 220.678ZM1505.94 248.836V252.58H1509.94V248.836H1505.94ZM1505.94 252.58C1505.94 259.379 1507.15 264.678 1510.2 267.722L1513.02 264.894C1511.18 263.05 1509.94 259.197 1509.94 252.58H1505.94ZM1510.21 267.737C1513.26 270.719 1518.58 271.896 1525.42 271.896V267.896C1518.73 267.896 1514.85 266.681 1513.01 264.879L1510.21 267.737ZM1525.42 271.896H1538.21V267.896H1525.42V271.896ZM1538.21 271.896C1543.57 271.896 1547.8 271.405 1550.71 270.279L1549.26 266.549C1547.07 267.399 1543.45 267.896 1538.21 267.896V271.896ZM1550.71 270.279C1553.79 269.085 1555.92 266.906 1556.95 263.82L1553.16 262.556C1552.52 264.462 1551.28 265.767 1549.26 266.549L1550.71 270.279ZM1556.98 263.744C1557.5 261.951 1558.15 260.771 1558.85 260.042L1555.95 257.286C1554.66 258.637 1553.76 260.473 1553.13 262.632L1556.98 263.744ZM1558.81 260.078C1559.34 259.546 1560.3 259.104 1562.08 259.104V255.104C1559.69 255.104 1557.53 255.702 1555.98 257.25L1558.81 260.078ZM1562.08 259.104C1563.92 259.104 1565 259.582 1565.65 260.234L1568.48 257.406C1566.85 255.77 1564.6 255.104 1562.08 255.104V259.104ZM1565.65 260.234C1566.17 260.747 1566.54 261.639 1566.19 263.438L1570.12 264.186C1570.61 261.617 1570.26 259.181 1568.48 257.406L1565.65 260.234ZM1566.19 263.463C1565.13 269.424 1562.35 273.717 1557.88 276.554L1560.03 279.93C1565.55 276.423 1568.9 271.096 1570.13 264.161L1566.19 263.463ZM1557.88 276.554C1553.33 279.445 1546.84 281 1538.21 281V285C1547.25 285 1554.59 283.383 1560.03 279.93L1557.88 276.554ZM1538.21 281H1525.42V285H1538.21V281ZM1525.42 281C1515.35 281 1508.26 278.571 1503.73 274.09L1500.92 276.934C1506.48 282.437 1514.78 285 1525.42 285V281ZM1503.74 274.098C1499.27 269.623 1496.84 262.589 1496.84 252.58H1492.84C1492.84 263.163 1495.4 271.417 1500.91 276.926L1503.74 274.098ZM1496.84 252.58V234.484H1492.84V252.58H1496.84ZM1496.84 234.484C1496.84 224.196 1499.28 217.073 1503.73 212.662L1500.92 209.818C1495.39 215.287 1492.84 223.66 1492.84 234.484H1496.84ZM1503.73 212.662C1508.25 208.188 1515.34 205.807 1525.4 205.908L1525.44 201.908C1514.8 201.801 1506.49 204.308 1500.92 209.818L1503.73 212.662ZM1525.42 205.908H1538.21V201.908H1525.42V205.908ZM1538.21 205.908C1548.33 205.908 1555.41 208.339 1559.88 212.81L1562.71 209.982C1557.2 204.469 1548.89 201.908 1538.21 201.908V205.908ZM1559.89 212.818C1564.35 217.232 1566.78 224.307 1566.78 234.484H1570.78C1570.78 223.757 1568.22 215.44 1562.7 209.974L1559.89 212.818ZM1566.78 234.484V242.284H1570.78V234.484H1566.78ZM1566.78 242.284C1566.78 244.16 1566.32 245.199 1565.73 245.784C1565.15 246.368 1564.11 246.836 1562.23 246.836V250.836C1564.72 250.836 1566.96 250.212 1568.56 248.612C1570.16 247.013 1570.78 244.776 1570.78 242.284H1566.78ZM1562.23 246.836H1507.94V250.836H1562.23V246.836ZM1525.45 215.012C1518.6 214.907 1513.25 216.048 1510.2 219.108L1513.02 221.936C1514.85 220.108 1518.71 218.909 1525.38 219.012L1525.45 215.012ZM1510.2 219.108C1507.14 222.158 1505.94 227.545 1505.94 234.484H1509.94C1509.94 227.695 1511.19 223.774 1513.02 221.936L1510.2 219.108ZM1505.94 234.484V235.732H1509.94V234.484H1505.94ZM1507.94 237.732H1555.68V233.732H1507.94V237.732ZM1557.68 235.732V234.484H1553.68V235.732H1557.68ZM1557.68 234.484C1557.68 227.599 1556.48 222.25 1553.41 219.249L1550.61 222.107C1552.44 223.89 1553.68 227.745 1553.68 234.484H1557.68ZM1553.44 219.279C1550.44 216.212 1545.09 215.012 1538.21 215.012V219.012C1544.95 219.012 1548.8 220.256 1550.58 222.077L1553.44 219.279ZM1538.21 215.012H1525.42V219.012H1538.21V215.012ZM1610.56 216.544H1608.56V222.625L1612.17 217.731L1610.56 216.544ZM1622.26 207.106L1621.44 205.279L1621.44 205.283L1622.26 207.106ZM1618.05 222.004L1616.9 220.368L1616.9 220.368L1618.05 222.004ZM1610.56 235.186L1608.56 235.091L1608.56 235.138V235.186H1610.56ZM1604.01 281C1602.13 281 1601.09 280.532 1600.51 279.948C1599.92 279.363 1599.45 278.324 1599.45 276.448H1595.45C1595.45 278.94 1596.08 281.177 1597.68 282.776C1599.28 284.376 1601.51 285 1604.01 285V281ZM1599.45 276.448V210.46H1595.45V276.448H1599.45ZM1599.45 210.46C1599.45 208.584 1599.92 207.545 1600.51 206.96C1601.09 206.376 1602.13 205.908 1604.01 205.908V201.908C1601.51 201.908 1599.28 202.532 1597.68 204.132C1596.08 205.731 1595.45 207.968 1595.45 210.46H1599.45ZM1604.01 205.908C1605.88 205.908 1606.92 206.376 1607.51 206.96C1608.09 207.545 1608.56 208.584 1608.56 210.46H1612.56C1612.56 207.968 1611.93 205.731 1610.33 204.132C1608.74 202.532 1606.5 201.908 1604.01 201.908V205.908ZM1608.56 210.46V216.544H1612.56V210.46H1608.56ZM1612.17 217.731C1615.03 213.848 1618.66 210.921 1623.08 208.929L1621.44 205.283C1616.39 207.555 1612.22 210.919 1608.95 215.357L1612.17 217.731ZM1623.07 208.933C1627.56 206.933 1632.74 205.908 1638.64 205.908V201.908C1632.27 201.908 1626.52 203.015 1621.44 205.279L1623.07 208.933ZM1638.64 205.908C1640.51 205.908 1641.55 206.376 1642.14 206.96C1642.72 207.545 1643.19 208.584 1643.19 210.46H1647.19C1647.19 207.968 1646.57 205.731 1644.97 204.132C1643.37 202.532 1641.13 201.908 1638.64 201.908V205.908ZM1643.19 210.46C1643.19 212.336 1642.72 213.375 1642.14 213.96C1641.55 214.544 1640.51 215.012 1638.64 215.012V219.012C1641.13 219.012 1643.37 218.388 1644.97 216.788C1646.57 215.189 1647.19 212.952 1647.19 210.46H1643.19ZM1638.64 215.012C1629.44 215.012 1622.1 216.705 1616.9 220.368L1619.2 223.64C1623.45 220.647 1629.84 219.012 1638.64 219.012V215.012ZM1616.9 220.368C1611.69 224.027 1608.85 228.973 1608.56 235.091L1612.56 235.281C1612.78 230.479 1614.94 226.637 1619.2 223.64L1616.9 220.368ZM1608.56 235.186V276.448H1612.56V235.186H1608.56ZM1608.56 276.448C1608.56 278.324 1608.09 279.363 1607.51 279.948C1606.92 280.532 1605.88 281 1604.01 281V285C1606.5 285 1608.74 284.376 1610.33 282.776C1611.93 281.177 1612.56 278.94 1612.56 276.448H1608.56Z" fill="black"/>
</g>
</g>
<defs>
<filter id="filter0_d_202_9" x="0" y="0" width="2008" height="458" filterUnits="userSpaceOnUse" color-interpolation-filters="sRGB">
<feFlood flood-opacity="0" result="BackgroundImageFix"/>
<feColorMatrix in="SourceAlpha" type="matrix" values="0 0 0 0 0 0 0 0 0 0 0 0 0 0 0 0 0 0 127 0" result="hardAlpha"/>
<feOffset dy="4"/>
<feGaussianBlur stdDeviation="2"/>
<feComposite in2="hardAlpha" operator="out"/>
<feColorMatrix type="matrix" values="0 0 0 0 0 0 0 0 0 0 0 0 0 0 0 0 0 0 0.25 0"/>
<feBlend mode="normal" in2="BackgroundImageFix" result="effect1_dropShadow_202_9"/>
<feBlend mode="normal" in="SourceGraphic" in2="effect1_dropShadow_202_9" result="shape"/>
</filter>
<filter id="filter1_d_202_9" x="0" y="0" width="2008" height="458" filterUnits="userSpaceOnUse" color-interpolation-filters="sRGB">
<feFlood flood-opacity="0" result="BackgroundImageFix"/>
<feColorMatrix in="SourceAlpha" type="matrix" values="0 0 0 0 0 0 0 0 0 0 0 0 0 0 0 0 0 0 127 0" result="hardAlpha"/>
<feOffset dy="4"/>
<feGaussianBlur stdDeviation="2"/>
<feComposite in2="hardAlpha" operator="out"/>
<feColorMatrix type="matrix" values="0 0 0 0 0 0 0 0 0 0 0 0 0 0 0 0 0 0 0.25 0"/>
<feBlend mode="normal" in2="BackgroundImageFix" result="effect1_dropShadow_202_9"/>
<feBlend mode="normal" in="SourceGraphic" in2="effect1_dropShadow_202_9" result="shape"/>
</filter>
<filter id="filter2_f_202_9" x="374.419" y="171.176" width="1272.77" height="116.086" filterUnits="userSpaceOnUse" color-interpolation-filters="sRGB">
<feFlood flood-opacity="0" result="BackgroundImageFix"/>
<feBlend mode="normal" in="SourceGraphic" in2="BackgroundImageFix" result="shape"/>
<feGaussianBlur stdDeviation="1" result="effect1_foregroundBlur_202_9"/>
</filter>
<clipPath id="clip0_202_9">
<rect width="2000" height="450" fill="white" transform="translate(4)"/>
</clipPath>
</defs>
</svg>
